<svg width="11" height="11" viewBox="0 0 11 11" fill="none" xmlns="http://www.w3.org/2000/svg">
<path d="M5.5 6.41352L1.10208 10.8117C0.982011 10.9316 0.831094 10.993 0.649328 10.9959C0.467707 10.9986 0.314044 10.9372 0.18834 10.8117C0.06278 10.686 0 10.5337 0 10.3548C0 10.1759 0.06278 10.0236 0.18834 9.89792L4.58648 5.5L0.18834 1.10208C0.068415 0.982012 0.00700771 0.831094 0.00411795 0.649329C0.00137269 0.467707 0.06278 0.314044 0.18834 0.18834C0.314044 0.06278 0.466334 0 0.64521 0C0.824086 0 0.976376 0.06278 1.10208 0.18834L5.5 4.58648L9.89792 0.18834C10.018 0.068415 10.1689 0.00700771 10.3507 0.00411795C10.5323 0.00137269 10.686 0.06278 10.8117 0.18834C10.9372 0.314044 11 0.466335 11 0.645211C11 0.824086 10.9372 0.976377 10.8117 1.10208L6.41352 5.5L10.8117 9.89792C10.9316 10.018 10.993 10.1689 10.9959 10.3507C10.9986 10.5323 10.9372 10.686 10.8117 10.8117C10.686 10.9372 10.5337 11 10.3548 11C10.1759 11 10.0236 10.9372 9.89792 10.8117L5.5 6.41352Z" fill="#888888"/>
</svg>
