<svg width="15" height="10" viewBox="0 0 15 10" fill="none" xmlns="http://www.w3.org/2000/svg">
<path d="M0.661765 10C0.474265 10 0.317132 9.93618 0.190368 9.80855C0.063456 9.68106 0 9.52295 0 9.33424C0 9.14567 0.063456 8.98764 0.190368 8.86015C0.317132 8.73281 0.474265 8.66914 0.661765 8.66914H14.3382C14.5257 8.66914 14.6829 8.73288 14.8096 8.86037C14.9365 8.98801 15 9.14618 15 9.3349C15 9.52347 14.9365 9.6815 14.8096 9.80899C14.6829 9.93633 14.5257 10 14.3382 10H0.661765ZM0.661765 5.66554C0.474265 5.66554 0.317132 5.60172 0.190368 5.47409C0.063456 5.34645 0 5.18835 0 4.99978C0 4.81106 0.063456 4.65303 0.190368 4.52569C0.317132 4.3982 0.474265 4.33446 0.661765 4.33446H14.3382C14.5257 4.33446 14.6829 4.39828 14.8096 4.52591C14.9365 4.65355 15 4.81165 15 5.00022C15 5.18894 14.9365 5.34697 14.8096 5.47431C14.6829 5.6018 14.5257 5.66554 14.3382 5.66554H0.661765ZM0.661765 1.33086C0.474265 1.33086 0.317132 1.26712 0.190368 1.13963C0.063456 1.01199 0 0.853817 0 0.665099C0 0.476528 0.063456 0.318499 0.190368 0.19101C0.317132 0.0636699 0.474265 0 0.661765 0H14.3382C14.5257 0 14.6829 0.0638183 14.8096 0.191455C14.9365 0.318943 15 0.477046 15 0.665765C15 0.854335 14.9365 1.01236 14.8096 1.13985C14.6829 1.26719 14.5257 1.33086 14.3382 1.33086H0.661765Z" fill="#888888"/>
</svg>
