<svg width="512" height="512" viewBox="0 0 512 512" fill="none" xmlns="http://www.w3.org/2000/svg">
<rect width="512" height="512" fill="#0A0A0A"/>
<mask id="mask0_823_3059" style="mask-type:alpha" maskUnits="userSpaceOnUse" x="52" y="52" width="408" height="408">
<rect x="52" y="52" width="408" height="408" fill="#D9D9D9"/>
</mask>
<g mask="url(#mask0_823_3059)">
<path d="M250.05 153.575C248.35 151.875 247.5 149.892 247.5 147.625C247.5 145.358 248.35 143.375 250.05 141.675C251.75 139.975 253.733 139.125 256 139.125C258.267 139.125 260.25 139.975 261.95 141.675C263.65 143.375 264.5 145.358 264.5 147.625C264.5 149.892 263.65 151.875 261.95 153.575C260.25 155.275 258.267 156.125 256 156.125C253.733 156.125 251.75 155.275 250.05 153.575ZM284.05 153.575C282.35 151.875 281.5 149.892 281.5 147.625C281.5 145.358 282.35 143.375 284.05 141.675C285.75 139.975 287.733 139.125 290 139.125C292.267 139.125 294.25 139.975 295.95 141.675C297.65 143.375 298.5 145.358 298.5 147.625C298.5 149.892 297.65 151.875 295.95 153.575C294.25 155.275 292.267 156.125 290 156.125C287.733 156.125 285.75 155.275 284.05 153.575ZM216.05 153.575C214.35 151.875 213.5 149.892 213.5 147.625C213.5 145.358 214.35 143.375 216.05 141.675C217.75 139.975 219.733 139.125 222 139.125C224.267 139.125 226.25 139.975 227.95 141.675C229.65 143.375 230.5 145.358 230.5 147.625C230.5 149.892 229.65 151.875 227.95 153.575C226.25 155.275 224.267 156.125 222 156.125C219.733 156.125 217.75 155.275 216.05 153.575ZM335.05 170.575C333.35 168.875 332.5 166.892 332.5 164.625C332.5 162.358 333.35 160.375 335.05 158.675C336.75 156.975 338.733 156.125 341 156.125C343.267 156.125 345.25 156.975 346.95 158.675C348.65 160.375 349.5 162.358 349.5 164.625C349.5 166.892 348.65 168.875 346.95 170.575C345.25 172.275 343.267 173.125 341 173.125C338.733 173.125 336.75 172.275 335.05 170.575ZM199.05 170.575C197.35 168.875 196.5 166.892 196.5 164.625C196.5 162.358 197.35 160.375 199.05 158.675C200.75 156.975 202.733 156.125 205 156.125C207.267 156.125 209.25 156.975 210.95 158.675C212.65 160.375 213.5 162.358 213.5 164.625C213.5 166.892 212.65 168.875 210.95 170.575C209.25 172.275 207.267 173.125 205 173.125C202.733 173.125 200.75 172.275 199.05 170.575ZM165.05 170.575C163.35 168.875 162.5 166.892 162.5 164.625C162.5 162.358 163.35 160.375 165.05 158.675C166.75 156.975 168.733 156.125 171 156.125C173.267 156.125 175.25 156.975 176.95 158.675C178.65 160.375 179.5 162.358 179.5 164.625C179.5 166.892 178.65 168.875 176.95 170.575C175.25 172.275 173.267 173.125 171 173.125C168.733 173.125 166.75 172.275 165.05 170.575ZM233.05 170.575C231.35 168.875 230.5 166.892 230.5 164.625C230.5 162.358 231.35 160.375 233.05 158.675C234.75 156.975 236.733 156.125 239 156.125C241.267 156.125 243.25 156.975 244.95 158.675C246.65 160.375 247.5 162.358 247.5 164.625C247.5 166.892 246.65 168.875 244.95 170.575C243.25 172.275 241.267 173.125 239 173.125C236.733 173.125 234.75 172.275 233.05 170.575ZM267.05 170.575C265.35 168.875 264.5 166.892 264.5 164.625C264.5 162.358 265.35 160.375 267.05 158.675C268.75 156.975 270.733 156.125 273 156.125C275.267 156.125 277.25 156.975 278.95 158.675C280.65 160.375 281.5 162.358 281.5 164.625C281.5 166.892 280.65 168.875 278.95 170.575C277.25 172.275 275.267 173.125 273 173.125C270.733 173.125 268.75 172.275 267.05 170.575ZM301.05 170.575C299.35 168.875 298.5 166.892 298.5 164.625C298.5 162.358 299.35 160.375 301.05 158.675C302.75 156.975 304.733 156.125 307 156.125C309.267 156.125 311.25 156.975 312.95 158.675C314.65 160.375 315.5 162.358 315.5 164.625C315.5 166.892 314.65 168.875 312.95 170.575C311.25 172.275 309.267 173.125 307 173.125C304.733 173.125 302.75 172.275 301.05 170.575ZM250.05 187.575C248.35 185.875 247.5 183.892 247.5 181.625C247.5 179.358 248.35 177.375 250.05 175.675C251.75 173.975 253.733 173.125 256 173.125C258.267 173.125 260.25 173.975 261.95 175.675C263.65 177.375 264.5 179.358 264.5 181.625C264.5 183.892 263.65 185.875 261.95 187.575C260.25 189.275 258.267 190.125 256 190.125C253.733 190.125 251.75 189.275 250.05 187.575ZM284.05 187.575C282.35 185.875 281.5 183.892 281.5 181.625C281.5 179.358 282.35 177.375 284.05 175.675C285.75 173.975 287.733 173.125 290 173.125C292.267 173.125 294.25 173.975 295.95 175.675C297.65 177.375 298.5 179.358 298.5 181.625C298.5 183.892 297.65 185.875 295.95 187.575C294.25 189.275 292.267 190.125 290 190.125C287.733 190.125 285.75 189.275 284.05 187.575ZM318.05 187.575C316.35 185.875 315.5 183.892 315.5 181.625C315.5 179.358 316.35 177.375 318.05 175.675C319.75 173.975 321.733 173.125 324 173.125C326.267 173.125 328.25 173.975 329.95 175.675C331.65 177.375 332.5 179.358 332.5 181.625C332.5 183.892 331.65 185.875 329.95 187.575C328.25 189.275 326.267 190.125 324 190.125C321.733 190.125 319.75 189.275 318.05 187.575ZM216.05 187.575C214.35 185.875 213.5 183.892 213.5 181.625C213.5 179.358 214.35 177.375 216.05 175.675C217.75 173.975 219.733 173.125 222 173.125C224.267 173.125 226.25 173.975 227.95 175.675C229.65 177.375 230.5 179.358 230.5 181.625C230.5 183.892 229.65 185.875 227.95 187.575C226.25 189.275 224.267 190.125 222 190.125C219.733 190.125 217.75 189.275 216.05 187.575ZM182.05 187.575C180.35 185.875 179.5 183.892 179.5 181.625C179.5 179.358 180.35 177.375 182.05 175.675C183.75 173.975 185.733 173.125 188 173.125C190.267 173.125 192.25 173.975 193.95 175.675C195.65 177.375 196.5 179.358 196.5 181.625C196.5 183.892 195.65 185.875 193.95 187.575C192.25 189.275 190.267 190.125 188 190.125C185.733 190.125 183.75 189.275 182.05 187.575ZM199.05 204.575C197.35 202.875 196.5 200.892 196.5 198.625C196.5 196.358 197.35 194.375 199.05 192.675C200.75 190.975 202.733 190.125 205 190.125C207.267 190.125 209.25 190.975 210.95 192.675C212.65 194.375 213.5 196.358 213.5 198.625C213.5 200.892 212.65 202.875 210.95 204.575C209.25 206.275 207.267 207.125 205 207.125C202.733 207.125 200.75 206.275 199.05 204.575ZM165.05 204.575C163.35 202.875 162.5 200.892 162.5 198.625C162.5 196.358 163.35 194.375 165.05 192.675C166.75 190.975 168.733 190.125 171 190.125C173.267 190.125 175.25 190.975 176.95 192.675C178.65 194.375 179.5 196.358 179.5 198.625C179.5 200.892 178.65 202.875 176.95 204.575C175.25 206.275 173.267 207.125 171 207.125C168.733 207.125 166.75 206.275 165.05 204.575ZM233.05 204.575C231.35 202.875 230.5 200.892 230.5 198.625C230.5 196.358 231.35 194.375 233.05 192.675C234.75 190.975 236.733 190.125 239 190.125C241.267 190.125 243.25 190.975 244.95 192.675C246.65 194.375 247.5 196.358 247.5 198.625C247.5 200.892 246.65 202.875 244.95 204.575C243.25 206.275 241.267 207.125 239 207.125C236.733 207.125 234.75 206.275 233.05 204.575ZM267.05 204.575C265.35 202.875 264.5 200.892 264.5 198.625C264.5 196.358 265.35 194.375 267.05 192.675C268.75 190.975 270.733 190.125 273 190.125C275.267 190.125 277.25 190.975 278.95 192.675C280.65 194.375 281.5 196.358 281.5 198.625C281.5 200.892 280.65 202.875 278.95 204.575C277.25 206.275 275.267 207.125 273 207.125C270.733 207.125 268.75 206.275 267.05 204.575ZM301.05 204.575C299.35 202.875 298.5 200.892 298.5 198.625C298.5 196.358 299.35 194.375 301.05 192.675C302.75 190.975 304.733 190.125 307 190.125C309.267 190.125 311.25 190.975 312.95 192.675C314.65 194.375 315.5 196.358 315.5 198.625C315.5 200.892 314.65 202.875 312.95 204.575C311.25 206.275 309.267 207.125 307 207.125C304.733 207.125 302.75 206.275 301.05 204.575ZM335.05 204.575C333.35 202.875 332.5 200.892 332.5 198.625C332.5 196.358 333.35 194.375 335.05 192.675C336.75 190.975 338.733 190.125 341 190.125C343.267 190.125 345.25 190.975 346.95 192.675C348.65 194.375 349.5 196.358 349.5 198.625C349.5 200.892 348.65 202.875 346.95 204.575C345.25 206.275 343.267 207.125 341 207.125C338.733 207.125 336.75 206.275 335.05 204.575ZM131.05 204.575C129.35 202.875 128.5 200.892 128.5 198.625C128.5 196.358 129.35 194.375 131.05 192.675C132.75 190.975 134.733 190.125 137 190.125C139.267 190.125 141.25 190.975 142.95 192.675C144.65 194.375 145.5 196.358 145.5 198.625C145.5 200.892 144.65 202.875 142.95 204.575C141.25 206.275 139.267 207.125 137 207.125C134.733 207.125 132.75 206.275 131.05 204.575ZM148.05 187.575C146.35 185.875 145.5 183.892 145.5 181.625C145.5 179.358 146.35 177.375 148.05 175.675C149.75 173.975 151.733 173.125 154 173.125C156.267 173.125 158.25 173.975 159.95 175.675C161.65 177.375 162.5 179.358 162.5 181.625C162.5 183.892 161.65 185.875 159.95 187.575C158.25 189.275 156.267 190.125 154 190.125C151.733 190.125 149.75 189.275 148.05 187.575ZM182.05 153.575C180.35 151.875 179.5 149.892 179.5 147.625C179.5 145.358 180.35 143.375 182.05 141.675C183.75 139.975 185.733 139.125 188 139.125C190.267 139.125 192.25 139.975 193.95 141.675C195.65 143.375 196.5 145.358 196.5 147.625C196.5 149.892 195.65 151.875 193.95 153.575C192.25 155.275 190.267 156.125 188 156.125C185.733 156.125 183.75 155.275 182.05 153.575ZM199.05 136.575C197.35 134.875 196.5 132.892 196.5 130.625C196.5 128.358 197.35 126.375 199.05 124.675C200.75 122.975 202.733 122.125 205 122.125C207.267 122.125 209.25 122.975 210.95 124.675C212.65 126.375 213.5 128.358 213.5 130.625C213.5 132.892 212.65 134.875 210.95 136.575C209.25 138.275 207.267 139.125 205 139.125C202.733 139.125 200.75 138.275 199.05 136.575ZM233.05 136.575C231.35 134.875 230.5 132.892 230.5 130.625C230.5 128.358 231.35 126.375 233.05 124.675C234.75 122.975 236.733 122.125 239 122.125C241.267 122.125 243.25 122.975 244.95 124.675C246.65 126.375 247.5 128.358 247.5 130.625C247.5 132.892 246.65 134.875 244.95 136.575C243.25 138.275 241.267 139.125 239 139.125C236.733 139.125 234.75 138.275 233.05 136.575ZM267.05 136.575C265.35 134.875 264.5 132.892 264.5 130.625C264.5 128.358 265.35 126.375 267.05 124.675C268.75 122.975 270.733 122.125 273 122.125C275.267 122.125 277.25 122.975 278.95 124.675C280.65 126.375 281.5 128.358 281.5 130.625C281.5 132.892 280.65 134.875 278.95 136.575C277.25 138.275 275.267 139.125 273 139.125C270.733 139.125 268.75 138.275 267.05 136.575ZM301.05 136.575C299.35 134.875 298.5 132.892 298.5 130.625C298.5 128.358 299.35 126.375 301.05 124.675C302.75 122.975 304.733 122.125 307 122.125C309.267 122.125 311.25 122.975 312.95 124.675C314.65 126.375 315.5 128.358 315.5 130.625C315.5 132.892 314.65 134.875 312.95 136.575C311.25 138.275 309.267 139.125 307 139.125C304.733 139.125 302.75 138.275 301.05 136.575ZM318.05 153.575C316.35 151.875 315.5 149.892 315.5 147.625C315.5 145.358 316.35 143.375 318.05 141.675C319.75 139.975 321.733 139.125 324 139.125C326.267 139.125 328.25 139.975 329.95 141.675C331.65 143.375 332.5 145.358 332.5 147.625C332.5 149.892 331.65 151.875 329.95 153.575C328.25 155.275 326.267 156.125 324 156.125C321.733 156.125 319.75 155.275 318.05 153.575ZM352.05 187.575C350.35 185.875 349.5 183.892 349.5 181.625C349.5 179.358 350.35 177.375 352.05 175.675C353.75 173.975 355.733 173.125 358 173.125C360.267 173.125 362.25 173.975 363.95 175.675C365.65 177.375 366.5 179.358 366.5 181.625C366.5 183.892 365.65 185.875 363.95 187.575C362.25 189.275 360.267 190.125 358 190.125C355.733 190.125 353.75 189.275 352.05 187.575ZM369.05 204.575C367.35 202.875 366.5 200.892 366.5 198.625C366.5 196.358 367.35 194.375 369.05 192.675C370.75 190.975 372.733 190.125 375 190.125C377.267 190.125 379.25 190.975 380.95 192.675C382.65 194.375 383.5 196.358 383.5 198.625C383.5 200.892 382.65 202.875 380.95 204.575C379.25 206.275 377.267 207.125 375 207.125C372.733 207.125 370.75 206.275 369.05 204.575ZM189.913 288.087C185.804 283.979 183.75 278.95 183.75 273C183.75 267.05 185.804 262.021 189.913 257.913C194.021 253.804 199.05 251.75 205 251.75C210.95 251.75 215.979 253.804 220.088 257.913C224.196 262.021 226.25 267.05 226.25 273C226.25 278.95 224.196 283.979 220.088 288.087C215.979 292.196 210.95 294.25 205 294.25C199.05 294.25 194.021 292.196 189.913 288.087ZM291.913 288.087C287.804 283.979 285.75 278.95 285.75 273C285.75 267.05 287.804 262.021 291.913 257.913C296.021 253.804 301.05 251.75 307 251.75C312.95 251.75 317.979 253.804 322.087 257.913C326.196 262.021 328.25 267.05 328.25 273C328.25 278.95 326.196 283.979 322.087 288.087C317.979 292.196 312.95 294.25 307 294.25C301.05 294.25 296.021 292.196 291.913 288.087ZM256 417.5C233.857 417.5 212.969 413.264 193.334 404.793C173.702 396.321 156.557 384.757 141.9 370.1C127.243 355.443 115.679 338.298 107.207 318.666C98.7358 299.031 94.5 278.167 94.5 256.072C94.5 233.706 98.7443 212.7 107.233 193.053C115.722 173.404 127.279 156.284 141.904 141.692C156.527 127.1 173.669 115.587 193.33 107.152C212.99 98.7174 233.863 94.5 255.949 94.5C278.301 94.5 299.3 98.7174 318.947 107.152C338.596 115.587 355.716 127.1 370.308 141.692C384.9 156.284 396.413 173.4 404.848 193.04C413.283 212.681 417.5 233.668 417.5 256C417.5 278.097 413.283 298.982 404.848 318.654C396.413 338.325 384.9 355.473 370.308 370.096C355.716 384.721 338.6 396.278 318.96 404.767C299.319 413.256 278.332 417.5 256 417.5ZM256 392C293.967 392 326.125 378.754 352.475 352.263C378.825 325.771 392 293.683 392 256C392 218.033 378.825 185.875 352.475 159.525C326.125 133.175 293.967 120 256 120C218.317 120 186.229 133.175 159.738 159.525C133.246 185.875 120 218.033 120 256C120 293.683 133.246 325.771 159.738 352.263C186.229 378.754 218.317 392 256 392Z" fill="white"/>
</g>
</svg>
