<svg width="512" height="512" viewBox="0 0 512 512" fill="none" xmlns="http://www.w3.org/2000/svg">
<rect width="512" height="512" fill="#0A0A0A"/>
<mask id="mask0_823_3059" style="mask-type:alpha" maskUnits="userSpaceOnUse" x="61" y="61" width="390" height="390">
<rect x="61" y="61" width="390" height="390" fill="#D9D9D9"/>
</mask>
<g mask="url(#mask0_823_3059)">
<path d="M250.313 158.094C248.688 156.469 247.875 154.573 247.875 152.406C247.875 150.24 248.688 148.344 250.313 146.719C251.938 145.094 253.833 144.281 256 144.281C258.167 144.281 260.063 145.094 261.688 146.719C263.313 148.344 264.125 150.24 264.125 152.406C264.125 154.573 263.313 156.469 261.688 158.094C260.063 159.719 258.167 160.531 256 160.531C253.833 160.531 251.938 159.719 250.313 158.094ZM282.813 158.094C281.188 156.469 280.375 154.573 280.375 152.406C280.375 150.24 281.188 148.344 282.813 146.719C284.438 145.094 286.333 144.281 288.5 144.281C290.667 144.281 292.563 145.094 294.188 146.719C295.813 148.344 296.625 150.24 296.625 152.406C296.625 154.573 295.813 156.469 294.188 158.094C292.563 159.719 290.667 160.531 288.5 160.531C286.333 160.531 284.438 159.719 282.813 158.094ZM217.813 158.094C216.188 156.469 215.375 154.573 215.375 152.406C215.375 150.24 216.188 148.344 217.813 146.719C219.438 145.094 221.333 144.281 223.5 144.281C225.667 144.281 227.562 145.094 229.187 146.719C230.812 148.344 231.625 150.24 231.625 152.406C231.625 154.573 230.812 156.469 229.187 158.094C227.562 159.719 225.667 160.531 223.5 160.531C221.333 160.531 219.438 159.719 217.813 158.094ZM331.563 174.344C329.938 172.719 329.125 170.823 329.125 168.656C329.125 166.49 329.938 164.594 331.563 162.969C333.188 161.344 335.083 160.531 337.25 160.531C339.417 160.531 341.313 161.344 342.938 162.969C344.563 164.594 345.375 166.49 345.375 168.656C345.375 170.823 344.563 172.719 342.938 174.344C341.313 175.969 339.417 176.781 337.25 176.781C335.083 176.781 333.188 175.969 331.563 174.344ZM201.563 174.344C199.938 172.719 199.125 170.823 199.125 168.656C199.125 166.49 199.938 164.594 201.563 162.969C203.188 161.344 205.083 160.531 207.25 160.531C209.417 160.531 211.312 161.344 212.937 162.969C214.562 164.594 215.375 166.49 215.375 168.656C215.375 170.823 214.562 172.719 212.937 174.344C211.312 175.969 209.417 176.781 207.25 176.781C205.083 176.781 203.188 175.969 201.563 174.344ZM169.063 174.344C167.438 172.719 166.625 170.823 166.625 168.656C166.625 166.49 167.438 164.594 169.063 162.969C170.688 161.344 172.583 160.531 174.75 160.531C176.917 160.531 178.812 161.344 180.437 162.969C182.062 164.594 182.875 166.49 182.875 168.656C182.875 170.823 182.062 172.719 180.437 174.344C178.812 175.969 176.917 176.781 174.75 176.781C172.583 176.781 170.688 175.969 169.063 174.344ZM234.063 174.344C232.438 172.719 231.625 170.823 231.625 168.656C231.625 166.49 232.438 164.594 234.063 162.969C235.688 161.344 237.583 160.531 239.75 160.531C241.917 160.531 243.813 161.344 245.438 162.969C247.063 164.594 247.875 166.49 247.875 168.656C247.875 170.823 247.063 172.719 245.438 174.344C243.813 175.969 241.917 176.781 239.75 176.781C237.583 176.781 235.688 175.969 234.063 174.344ZM266.563 174.344C264.938 172.719 264.125 170.823 264.125 168.656C264.125 166.49 264.938 164.594 266.563 162.969C268.188 161.344 270.083 160.531 272.25 160.531C274.417 160.531 276.313 161.344 277.938 162.969C279.563 164.594 280.375 166.49 280.375 168.656C280.375 170.823 279.563 172.719 277.938 174.344C276.313 175.969 274.417 176.781 272.25 176.781C270.083 176.781 268.188 175.969 266.563 174.344ZM299.063 174.344C297.438 172.719 296.625 170.823 296.625 168.656C296.625 166.49 297.438 164.594 299.063 162.969C300.688 161.344 302.583 160.531 304.75 160.531C306.917 160.531 308.813 161.344 310.438 162.969C312.063 164.594 312.875 166.49 312.875 168.656C312.875 170.823 312.063 172.719 310.438 174.344C308.813 175.969 306.917 176.781 304.75 176.781C302.583 176.781 300.688 175.969 299.063 174.344ZM250.313 190.594C248.688 188.969 247.875 187.073 247.875 184.906C247.875 182.74 248.688 180.844 250.313 179.219C251.938 177.594 253.833 176.781 256 176.781C258.167 176.781 260.063 177.594 261.688 179.219C263.313 180.844 264.125 182.74 264.125 184.906C264.125 187.073 263.313 188.969 261.688 190.594C260.063 192.219 258.167 193.031 256 193.031C253.833 193.031 251.938 192.219 250.313 190.594ZM282.813 190.594C281.188 188.969 280.375 187.073 280.375 184.906C280.375 182.74 281.188 180.844 282.813 179.219C284.438 177.594 286.333 176.781 288.5 176.781C290.667 176.781 292.563 177.594 294.188 179.219C295.813 180.844 296.625 182.74 296.625 184.906C296.625 187.073 295.813 188.969 294.188 190.594C292.563 192.219 290.667 193.031 288.5 193.031C286.333 193.031 284.438 192.219 282.813 190.594ZM315.313 190.594C313.688 188.969 312.875 187.073 312.875 184.906C312.875 182.74 313.688 180.844 315.313 179.219C316.938 177.594 318.833 176.781 321 176.781C323.167 176.781 325.063 177.594 326.688 179.219C328.313 180.844 329.125 182.74 329.125 184.906C329.125 187.073 328.313 188.969 326.688 190.594C325.063 192.219 323.167 193.031 321 193.031C318.833 193.031 316.938 192.219 315.313 190.594ZM217.813 190.594C216.188 188.969 215.375 187.073 215.375 184.906C215.375 182.74 216.188 180.844 217.813 179.219C219.438 177.594 221.333 176.781 223.5 176.781C225.667 176.781 227.562 177.594 229.187 179.219C230.812 180.844 231.625 182.74 231.625 184.906C231.625 187.073 230.812 188.969 229.187 190.594C227.562 192.219 225.667 193.031 223.5 193.031C221.333 193.031 219.438 192.219 217.813 190.594ZM185.313 190.594C183.688 188.969 182.875 187.073 182.875 184.906C182.875 182.74 183.688 180.844 185.313 179.219C186.938 177.594 188.833 176.781 191 176.781C193.167 176.781 195.062 177.594 196.687 179.219C198.312 180.844 199.125 182.74 199.125 184.906C199.125 187.073 198.312 188.969 196.687 190.594C195.062 192.219 193.167 193.031 191 193.031C188.833 193.031 186.938 192.219 185.313 190.594ZM201.563 206.844C199.938 205.219 199.125 203.323 199.125 201.156C199.125 198.99 199.938 197.094 201.563 195.469C203.188 193.844 205.083 193.031 207.25 193.031C209.417 193.031 211.312 193.844 212.937 195.469C214.562 197.094 215.375 198.99 215.375 201.156C215.375 203.323 214.562 205.219 212.937 206.844C211.312 208.469 209.417 209.281 207.25 209.281C205.083 209.281 203.188 208.469 201.563 206.844ZM169.063 206.844C167.438 205.219 166.625 203.323 166.625 201.156C166.625 198.99 167.438 197.094 169.063 195.469C170.688 193.844 172.583 193.031 174.75 193.031C176.917 193.031 178.812 193.844 180.437 195.469C182.062 197.094 182.875 198.99 182.875 201.156C182.875 203.323 182.062 205.219 180.437 206.844C178.812 208.469 176.917 209.281 174.75 209.281C172.583 209.281 170.688 208.469 169.063 206.844ZM234.063 206.844C232.438 205.219 231.625 203.323 231.625 201.156C231.625 198.99 232.438 197.094 234.063 195.469C235.688 193.844 237.583 193.031 239.75 193.031C241.917 193.031 243.813 193.844 245.438 195.469C247.063 197.094 247.875 198.99 247.875 201.156C247.875 203.323 247.063 205.219 245.438 206.844C243.813 208.469 241.917 209.281 239.75 209.281C237.583 209.281 235.688 208.469 234.063 206.844ZM266.563 206.844C264.938 205.219 264.125 203.323 264.125 201.156C264.125 198.99 264.938 197.094 266.563 195.469C268.188 193.844 270.083 193.031 272.25 193.031C274.417 193.031 276.313 193.844 277.938 195.469C279.563 197.094 280.375 198.99 280.375 201.156C280.375 203.323 279.563 205.219 277.938 206.844C276.313 208.469 274.417 209.281 272.25 209.281C270.083 209.281 268.188 208.469 266.563 206.844ZM299.063 206.844C297.438 205.219 296.625 203.323 296.625 201.156C296.625 198.99 297.438 197.094 299.063 195.469C300.688 193.844 302.583 193.031 304.75 193.031C306.917 193.031 308.813 193.844 310.438 195.469C312.063 197.094 312.875 198.99 312.875 201.156C312.875 203.323 312.063 205.219 310.438 206.844C308.813 208.469 306.917 209.281 304.75 209.281C302.583 209.281 300.688 208.469 299.063 206.844ZM331.563 206.844C329.938 205.219 329.125 203.323 329.125 201.156C329.125 198.99 329.938 197.094 331.563 195.469C333.188 193.844 335.083 193.031 337.25 193.031C339.417 193.031 341.313 193.844 342.938 195.469C344.563 197.094 345.375 198.99 345.375 201.156C345.375 203.323 344.563 205.219 342.938 206.844C341.313 208.469 339.417 209.281 337.25 209.281C335.083 209.281 333.188 208.469 331.563 206.844ZM136.563 206.844C134.938 205.219 134.125 203.323 134.125 201.156C134.125 198.99 134.938 197.094 136.563 195.469C138.188 193.844 140.083 193.031 142.25 193.031C144.417 193.031 146.313 193.844 147.938 195.469C149.563 197.094 150.375 198.99 150.375 201.156C150.375 203.323 149.563 205.219 147.938 206.844C146.313 208.469 144.417 209.281 142.25 209.281C140.083 209.281 138.188 208.469 136.563 206.844ZM152.813 190.594C151.188 188.969 150.375 187.073 150.375 184.906C150.375 182.74 151.188 180.844 152.813 179.219C154.438 177.594 156.333 176.781 158.5 176.781C160.667 176.781 162.563 177.594 164.188 179.219C165.813 180.844 166.625 182.74 166.625 184.906C166.625 187.073 165.813 188.969 164.188 190.594C162.563 192.219 160.667 193.031 158.5 193.031C156.333 193.031 154.438 192.219 152.813 190.594ZM185.313 158.094C183.688 156.469 182.875 154.573 182.875 152.406C182.875 150.24 183.688 148.344 185.313 146.719C186.938 145.094 188.833 144.281 191 144.281C193.167 144.281 195.062 145.094 196.687 146.719C198.312 148.344 199.125 150.24 199.125 152.406C199.125 154.573 198.312 156.469 196.687 158.094C195.062 159.719 193.167 160.531 191 160.531C188.833 160.531 186.938 159.719 185.313 158.094ZM201.563 141.844C199.938 140.219 199.125 138.323 199.125 136.156C199.125 133.99 199.938 132.094 201.563 130.469C203.188 128.844 205.083 128.031 207.25 128.031C209.417 128.031 211.312 128.844 212.937 130.469C214.562 132.094 215.375 133.99 215.375 136.156C215.375 138.323 214.562 140.219 212.937 141.844C211.312 143.469 209.417 144.281 207.25 144.281C205.083 144.281 203.188 143.469 201.563 141.844ZM234.063 141.844C232.438 140.219 231.625 138.323 231.625 136.156C231.625 133.99 232.438 132.094 234.063 130.469C235.688 128.844 237.583 128.031 239.75 128.031C241.917 128.031 243.813 128.844 245.438 130.469C247.063 132.094 247.875 133.99 247.875 136.156C247.875 138.323 247.063 140.219 245.438 141.844C243.813 143.469 241.917 144.281 239.75 144.281C237.583 144.281 235.688 143.469 234.063 141.844ZM266.563 141.844C264.938 140.219 264.125 138.323 264.125 136.156C264.125 133.99 264.938 132.094 266.563 130.469C268.188 128.844 270.083 128.031 272.25 128.031C274.417 128.031 276.313 128.844 277.938 130.469C279.563 132.094 280.375 133.99 280.375 136.156C280.375 138.323 279.563 140.219 277.938 141.844C276.313 143.469 274.417 144.281 272.25 144.281C270.083 144.281 268.188 143.469 266.563 141.844ZM299.063 141.844C297.438 140.219 296.625 138.323 296.625 136.156C296.625 133.99 297.438 132.094 299.063 130.469C300.688 128.844 302.583 128.031 304.75 128.031C306.917 128.031 308.813 128.844 310.438 130.469C312.063 132.094 312.875 133.99 312.875 136.156C312.875 138.323 312.063 140.219 310.438 141.844C308.813 143.469 306.917 144.281 304.75 144.281C302.583 144.281 300.688 143.469 299.063 141.844ZM315.313 158.094C313.688 156.469 312.875 154.573 312.875 152.406C312.875 150.24 313.688 148.344 315.313 146.719C316.938 145.094 318.833 144.281 321 144.281C323.167 144.281 325.063 145.094 326.688 146.719C328.313 148.344 329.125 150.24 329.125 152.406C329.125 154.573 328.313 156.469 326.688 158.094C325.063 159.719 323.167 160.531 321 160.531C318.833 160.531 316.938 159.719 315.313 158.094ZM347.813 190.594C346.188 188.969 345.375 187.073 345.375 184.906C345.375 182.74 346.188 180.844 347.813 179.219C349.438 177.594 351.333 176.781 353.5 176.781C355.667 176.781 357.563 177.594 359.188 179.219C360.813 180.844 361.625 182.74 361.625 184.906C361.625 187.073 360.813 188.969 359.188 190.594C357.563 192.219 355.667 193.031 353.5 193.031C351.333 193.031 349.438 192.219 347.813 190.594ZM364.062 206.844C362.437 205.219 361.625 203.323 361.625 201.156C361.625 198.99 362.437 197.094 364.062 195.469C365.687 193.844 367.583 193.031 369.75 193.031C371.917 193.031 373.813 193.844 375.438 195.469C377.063 197.094 377.875 198.99 377.875 201.156C377.875 203.323 377.063 205.219 375.438 206.844C373.813 208.469 371.917 209.281 369.75 209.281C367.583 209.281 365.687 208.469 364.062 206.844ZM192.828 286.672C188.901 282.745 186.938 277.937 186.938 272.25C186.938 266.563 188.901 261.755 192.828 257.828C196.755 253.901 201.563 251.938 207.25 251.938C212.937 251.938 217.745 253.901 221.672 257.828C225.599 261.755 227.562 266.563 227.562 272.25C227.562 277.937 225.599 282.745 221.672 286.672C217.745 290.599 212.937 292.562 207.25 292.562C201.563 292.562 196.755 290.599 192.828 286.672ZM290.328 286.672C286.401 282.745 284.438 277.937 284.438 272.25C284.438 266.563 286.401 261.755 290.328 257.828C294.255 253.901 299.063 251.938 304.75 251.938C310.437 251.938 315.245 253.901 319.172 257.828C323.099 261.755 325.062 266.563 325.062 272.25C325.062 277.937 323.099 282.745 319.172 286.672C315.245 290.599 310.437 292.562 304.75 292.562C299.063 292.562 294.255 290.599 290.328 286.672ZM256 410.375C234.834 410.375 214.867 406.326 196.098 398.228C177.332 390.13 160.944 379.076 146.934 365.066C132.924 351.056 121.87 334.668 113.772 315.902C105.674 297.133 101.625 277.189 101.625 256.069C101.625 234.689 105.682 214.61 113.796 195.83C121.91 177.048 132.958 160.683 146.938 146.735C160.916 132.787 177.301 121.782 196.094 113.719C214.888 105.656 234.84 101.625 255.951 101.625C277.317 101.625 297.39 105.656 316.17 113.719C334.952 121.782 351.317 132.787 365.265 146.735C379.213 160.683 390.218 177.044 398.281 195.818C406.344 214.592 410.375 234.653 410.375 256C410.375 277.122 406.344 297.085 398.281 315.889C390.218 334.693 379.213 351.084 365.265 365.062C351.317 379.042 334.956 390.09 316.182 398.204C297.408 406.318 277.347 410.375 256 410.375ZM256 386C292.292 386 323.031 373.339 348.219 348.016C373.406 322.693 386 292.021 386 256C386 219.708 373.406 188.969 348.219 163.781C323.031 138.594 292.292 126 256 126C219.979 126 189.307 138.594 163.984 163.781C138.661 188.969 126 219.708 126 256C126 292.021 138.661 322.693 163.984 348.016C189.307 373.339 219.979 386 256 386Z" fill="white"/>
</g>
</svg>
