<svg width="512" height="512" viewBox="0 0 512 512" fill="none" xmlns="http://www.w3.org/2000/svg">
<rect width="512" height="512" rx="256" fill="white"/>
<mask id="mask0_829_3509" style="mask-type:alpha" maskUnits="userSpaceOnUse" x="5" y="5" width="501" height="501">
<rect x="5" y="5" width="501" height="501" fill="#D9D9D9"/>
</mask>
<g mask="url(#mask0_829_3509)">
<path d="M247.283 114.049C244.935 111.701 243.761 108.962 243.761 105.832C243.761 102.701 244.935 99.9623 247.283 97.6145C249.63 95.2668 252.37 94.0929 255.5 94.0929C258.63 94.0929 261.369 95.2668 263.717 97.6145C266.065 99.9623 267.238 102.701 267.238 105.832C267.238 108.962 266.065 111.701 263.717 114.049C261.369 116.396 258.63 117.57 255.5 117.57C252.37 117.57 249.63 116.396 247.283 114.049ZM294.237 114.049C291.89 111.701 290.716 108.962 290.716 105.832C290.716 102.701 291.89 99.9623 294.237 97.6145C296.585 95.2668 299.324 94.0929 302.455 94.0929C305.585 94.0929 308.324 95.2668 310.672 97.6145C313.019 99.9623 314.193 102.701 314.193 105.832C314.193 108.962 313.019 111.701 310.672 114.049C308.324 116.396 305.585 117.57 302.455 117.57C299.324 117.57 296.585 116.396 294.237 114.049ZM200.328 114.049C197.98 111.701 196.806 108.962 196.806 105.832C196.806 102.701 197.98 99.9623 200.328 97.6145C202.676 95.2668 205.415 94.0929 208.545 94.0929C211.675 94.0929 214.414 95.2668 216.762 97.6145C219.11 99.9623 220.284 102.701 220.284 105.832C220.284 108.962 219.11 111.701 216.762 114.049C214.414 116.396 211.675 117.57 208.545 117.57C205.415 117.57 202.676 116.396 200.328 114.049ZM364.67 137.526C362.322 135.178 361.148 132.439 361.148 129.309C361.148 126.179 362.322 123.44 364.67 121.092C367.017 118.744 369.756 117.57 372.887 117.57C376.017 117.57 378.756 118.744 381.104 121.092C383.451 123.44 384.625 126.179 384.625 129.309C384.625 132.439 383.451 135.178 381.104 137.526C378.756 139.874 376.017 141.048 372.887 141.048C369.756 141.048 367.017 139.874 364.67 137.526ZM176.851 137.526C174.503 135.178 173.329 132.439 173.329 129.309C173.329 126.179 174.503 123.44 176.851 121.092C179.198 118.744 181.937 117.57 185.068 117.57C188.198 117.57 190.937 118.744 193.285 121.092C195.633 123.44 196.806 126.179 196.806 129.309C196.806 132.439 195.633 135.178 193.285 137.526C190.937 139.874 188.198 141.048 185.068 141.048C181.937 141.048 179.198 139.874 176.851 137.526ZM129.896 137.526C127.548 135.178 126.374 132.439 126.374 129.309C126.374 126.179 127.548 123.44 129.896 121.092C132.244 118.744 134.983 117.57 138.113 117.57C141.243 117.57 143.982 118.744 146.33 121.092C148.678 123.44 149.852 126.179 149.852 129.309C149.852 132.439 148.678 135.178 146.33 137.526C143.982 139.874 141.243 141.048 138.113 141.048C134.983 141.048 132.244 139.874 129.896 137.526ZM223.805 137.526C221.458 135.178 220.284 132.439 220.284 129.309C220.284 126.179 221.458 123.44 223.805 121.092C226.153 118.744 228.892 117.57 232.022 117.57C235.153 117.57 237.892 118.744 240.24 121.092C242.587 123.44 243.761 126.179 243.761 129.309C243.761 132.439 242.587 135.178 240.24 137.526C237.892 139.874 235.153 141.048 232.022 141.048C228.892 141.048 226.153 139.874 223.805 137.526ZM270.76 137.526C268.412 135.178 267.238 132.439 267.238 129.309C267.238 126.179 268.412 123.44 270.76 121.092C273.108 118.744 275.847 117.57 278.977 117.57C282.108 117.57 284.847 118.744 287.194 121.092C289.542 123.44 290.716 126.179 290.716 129.309C290.716 132.439 289.542 135.178 287.194 137.526C284.847 139.874 282.108 141.048 278.977 141.048C275.847 141.048 273.108 139.874 270.76 137.526ZM317.715 137.526C315.367 135.178 314.193 132.439 314.193 129.309C314.193 126.179 315.367 123.44 317.715 121.092C320.063 118.744 322.802 117.57 325.932 117.57C329.062 117.57 331.801 118.744 334.149 121.092C336.497 123.44 337.671 126.179 337.671 129.309C337.671 132.439 336.497 135.178 334.149 137.526C331.801 139.874 329.062 141.048 325.932 141.048C322.802 141.048 320.063 139.874 317.715 137.526ZM247.283 161.003C244.935 158.656 243.761 155.917 243.761 152.786C243.761 149.656 244.935 146.917 247.283 144.569C249.63 142.222 252.37 141.048 255.5 141.048C258.63 141.048 261.369 142.222 263.717 144.569C266.065 146.917 267.238 149.656 267.238 152.786C267.238 155.917 266.065 158.656 263.717 161.003C261.369 163.351 258.63 164.525 255.5 164.525C252.37 164.525 249.63 163.351 247.283 161.003ZM294.237 161.003C291.89 158.656 290.716 155.917 290.716 152.786C290.716 149.656 291.89 146.917 294.237 144.569C296.585 142.222 299.324 141.048 302.455 141.048C305.585 141.048 308.324 142.222 310.672 144.569C313.019 146.917 314.193 149.656 314.193 152.786C314.193 155.917 313.019 158.656 310.672 161.003C308.324 163.351 305.585 164.525 302.455 164.525C299.324 164.525 296.585 163.351 294.237 161.003ZM341.192 161.003C338.844 158.656 337.671 155.917 337.671 152.786C337.671 149.656 338.844 146.917 341.192 144.569C343.54 142.222 346.279 141.048 349.409 141.048C352.54 141.048 355.279 142.222 357.626 144.569C359.974 146.917 361.148 149.656 361.148 152.786C361.148 155.917 359.974 158.656 357.626 161.003C355.279 163.351 352.54 164.525 349.409 164.525C346.279 164.525 343.54 163.351 341.192 161.003ZM200.328 161.003C197.98 158.656 196.806 155.917 196.806 152.786C196.806 149.656 197.98 146.917 200.328 144.569C202.676 142.222 205.415 141.048 208.545 141.048C211.675 141.048 214.414 142.222 216.762 144.569C219.11 146.917 220.284 149.656 220.284 152.786C220.284 155.917 219.11 158.656 216.762 161.003C214.414 163.351 211.675 164.525 208.545 164.525C205.415 164.525 202.676 163.351 200.328 161.003ZM153.373 161.003C151.026 158.656 149.852 155.917 149.852 152.786C149.852 149.656 151.026 146.917 153.373 144.569C155.721 142.222 158.46 141.048 161.59 141.048C164.721 141.048 167.46 142.222 169.807 144.569C172.155 146.917 173.329 149.656 173.329 152.786C173.329 155.917 172.155 158.656 169.807 161.003C167.46 163.351 164.721 164.525 161.59 164.525C158.46 164.525 155.721 163.351 153.373 161.003ZM176.851 184.481C174.503 182.133 173.329 179.394 173.329 176.264C173.329 173.133 174.503 170.394 176.851 168.047C179.198 165.699 181.937 164.525 185.068 164.525C188.198 164.525 190.937 165.699 193.285 168.047C195.633 170.394 196.806 173.133 196.806 176.264C196.806 179.394 195.633 182.133 193.285 184.481C190.937 186.829 188.198 188.002 185.068 188.002C181.937 188.002 179.198 186.829 176.851 184.481ZM129.896 184.481C127.548 182.133 126.374 179.394 126.374 176.264C126.374 173.133 127.548 170.394 129.896 168.047C132.244 165.699 134.983 164.525 138.113 164.525C141.243 164.525 143.982 165.699 146.33 168.047C148.678 170.394 149.852 173.133 149.852 176.264C149.852 179.394 148.678 182.133 146.33 184.481C143.982 186.829 141.243 188.002 138.113 188.002C134.983 188.002 132.244 186.829 129.896 184.481ZM223.805 184.481C221.458 182.133 220.284 179.394 220.284 176.264C220.284 173.133 221.458 170.394 223.805 168.047C226.153 165.699 228.892 164.525 232.022 164.525C235.153 164.525 237.892 165.699 240.24 168.047C242.587 170.394 243.761 173.133 243.761 176.264C243.761 179.394 242.587 182.133 240.24 184.481C237.892 186.829 235.153 188.002 232.022 188.002C228.892 188.002 226.153 186.829 223.805 184.481ZM270.76 184.481C268.412 182.133 267.238 179.394 267.238 176.264C267.238 173.133 268.412 170.394 270.76 168.047C273.108 165.699 275.847 164.525 278.977 164.525C282.108 164.525 284.847 165.699 287.194 168.047C289.542 170.394 290.716 173.133 290.716 176.264C290.716 179.394 289.542 182.133 287.194 184.481C284.847 186.829 282.108 188.002 278.977 188.002C275.847 188.002 273.108 186.829 270.76 184.481ZM317.715 184.481C315.367 182.133 314.193 179.394 314.193 176.264C314.193 173.133 315.367 170.394 317.715 168.047C320.063 165.699 322.802 164.525 325.932 164.525C329.062 164.525 331.801 165.699 334.149 168.047C336.497 170.394 337.671 173.133 337.671 176.264C337.671 179.394 336.497 182.133 334.149 184.481C331.801 186.829 329.062 188.002 325.932 188.002C322.802 188.002 320.063 186.829 317.715 184.481ZM364.67 184.481C362.322 182.133 361.148 179.394 361.148 176.264C361.148 173.133 362.322 170.394 364.67 168.047C367.017 165.699 369.756 164.525 372.887 164.525C376.017 164.525 378.756 165.699 381.104 168.047C383.451 170.394 384.625 173.133 384.625 176.264C384.625 179.394 383.451 182.133 381.104 184.481C378.756 186.829 376.017 188.002 372.887 188.002C369.756 188.002 367.017 186.829 364.67 184.481ZM82.9412 184.481C80.5934 182.133 79.4196 179.394 79.4196 176.264C79.4196 173.133 80.5934 170.394 82.9412 168.047C85.2889 165.699 88.0279 164.525 91.1583 164.525C94.2886 164.525 97.0276 165.699 99.3753 168.047C101.723 170.394 102.897 173.133 102.897 176.264C102.897 179.394 101.723 182.133 99.3753 184.481C97.0276 186.829 94.2886 188.002 91.1583 188.002C88.0279 188.002 85.2889 186.829 82.9412 184.481ZM106.419 161.003C104.071 158.656 102.897 155.917 102.897 152.786C102.897 149.656 104.071 146.917 106.419 144.569C108.766 142.222 111.505 141.048 114.636 141.048C117.766 141.048 120.505 142.222 122.853 144.569C125.2 146.917 126.374 149.656 126.374 152.786C126.374 155.917 125.2 158.656 122.853 161.003C120.505 163.351 117.766 164.525 114.636 164.525C111.505 164.525 108.766 163.351 106.419 161.003ZM153.373 114.049C151.026 111.701 149.852 108.962 149.852 105.832C149.852 102.701 151.026 99.9623 153.373 97.6145C155.721 95.2668 158.46 94.0929 161.59 94.0929C164.721 94.0929 167.46 95.2668 169.807 97.6145C172.155 99.9623 173.329 102.701 173.329 105.832C173.329 108.962 172.155 111.701 169.807 114.049C167.46 116.396 164.721 117.57 161.59 117.57C158.46 117.57 155.721 116.396 153.373 114.049ZM176.851 90.5713C174.503 88.2236 173.329 85.4846 173.329 82.3542C173.329 79.2239 174.503 76.4849 176.851 74.1372C179.198 71.7894 181.937 70.6156 185.068 70.6156C188.198 70.6156 190.937 71.7894 193.285 74.1372C195.633 76.4849 196.806 79.2239 196.806 82.3542C196.806 85.4846 195.633 88.2236 193.285 90.5713C190.937 92.9191 188.198 94.0929 185.068 94.0929C181.937 94.0929 179.198 92.9191 176.851 90.5713ZM223.805 90.5713C221.458 88.2236 220.284 85.4846 220.284 82.3542C220.284 79.2239 221.458 76.4849 223.805 74.1372C226.153 71.7894 228.892 70.6156 232.022 70.6156C235.153 70.6156 237.892 71.7894 240.24 74.1372C242.587 76.4849 243.761 79.2239 243.761 82.3542C243.761 85.4846 242.587 88.2236 240.24 90.5713C237.892 92.9191 235.153 94.0929 232.022 94.0929C228.892 94.0929 226.153 92.9191 223.805 90.5713ZM270.76 90.5713C268.412 88.2236 267.238 85.4846 267.238 82.3542C267.238 79.2239 268.412 76.4849 270.76 74.1372C273.108 71.7894 275.847 70.6156 278.977 70.6156C282.108 70.6156 284.847 71.7894 287.194 74.1372C289.542 76.4849 290.716 79.2239 290.716 82.3542C290.716 85.4846 289.542 88.2236 287.194 90.5713C284.847 92.9191 282.108 94.0929 278.977 94.0929C275.847 94.0929 273.108 92.9191 270.76 90.5713ZM317.715 90.5713C315.367 88.2236 314.193 85.4846 314.193 82.3542C314.193 79.2239 315.367 76.4849 317.715 74.1372C320.063 71.7894 322.802 70.6156 325.932 70.6156C329.062 70.6156 331.801 71.7894 334.149 74.1372C336.497 76.4849 337.671 79.2239 337.671 82.3542C337.671 85.4846 336.497 88.2236 334.149 90.5713C331.801 92.9191 329.062 94.0929 325.932 94.0929C322.802 94.0929 320.063 92.9191 317.715 90.5713ZM341.192 114.049C338.844 111.701 337.671 108.962 337.671 105.832C337.671 102.701 338.844 99.9623 341.192 97.6145C343.54 95.2668 346.279 94.0929 349.409 94.0929C352.54 94.0929 355.279 95.2668 357.626 97.6145C359.974 99.9623 361.148 102.701 361.148 105.832C361.148 108.962 359.974 111.701 357.626 114.049C355.279 116.396 352.54 117.57 349.409 117.57C346.279 117.57 343.54 116.396 341.192 114.049ZM388.147 161.003C385.799 158.656 384.625 155.917 384.625 152.786C384.625 149.656 385.799 146.917 388.147 144.569C390.495 142.222 393.234 141.048 396.364 141.048C399.494 141.048 402.233 142.222 404.581 144.569C406.929 146.917 408.103 149.656 408.103 152.786C408.103 155.917 406.929 158.656 404.581 161.003C402.233 163.351 399.494 164.525 396.364 164.525C393.234 164.525 390.495 163.351 388.147 161.003ZM411.624 184.481C409.277 182.133 408.103 179.394 408.103 176.264C408.103 173.133 409.277 170.394 411.624 168.047C413.972 165.699 416.711 164.525 419.841 164.525C422.972 164.525 425.711 165.699 428.058 168.047C430.406 170.394 431.58 173.133 431.58 176.264C431.58 179.394 430.406 182.133 428.058 184.481C425.711 186.829 422.972 188.002 419.841 188.002C416.711 188.002 413.972 186.829 411.624 184.481ZM164.232 299.813C158.558 294.14 155.721 287.194 155.721 278.977C155.721 270.76 158.558 263.815 164.232 258.141C169.905 252.467 176.851 249.63 185.068 249.63C193.285 249.63 200.23 252.467 205.904 258.141C211.578 263.815 214.414 270.76 214.414 278.977C214.414 287.194 211.578 294.14 205.904 299.813C200.23 305.487 193.285 308.324 185.068 308.324C176.851 308.324 169.905 305.487 164.232 299.813ZM305.096 299.813C299.422 294.14 296.585 287.194 296.585 278.977C296.585 270.76 299.422 263.815 305.096 258.141C310.769 252.467 317.715 249.63 325.932 249.63C334.149 249.63 341.094 252.467 346.768 258.141C352.442 263.815 355.279 270.76 355.279 278.977C355.279 287.194 352.442 294.14 346.768 299.813C341.094 305.487 334.149 308.324 325.932 308.324C317.715 308.324 310.769 305.487 305.096 299.813ZM255.5 478.535C224.921 478.535 196.073 472.685 168.956 460.985C141.844 449.286 118.167 433.315 97.9256 413.074C77.6842 392.833 61.7137 369.156 50.0142 342.043C38.3146 314.927 32.4648 286.112 32.4648 255.6C32.4648 224.711 38.3264 195.701 50.0494 168.569C61.7724 141.433 77.7331 117.789 97.9315 97.638C118.126 77.4866 141.799 61.5866 168.951 49.9379C196.102 38.2892 224.928 32.4648 255.429 32.4648C286.298 32.4648 315.299 38.2892 342.431 49.9379C369.567 61.5866 393.21 77.4866 413.362 97.638C433.513 117.789 449.413 141.427 461.062 168.551C472.71 195.676 478.535 224.658 478.535 255.5C478.535 286.016 472.71 314.858 461.062 342.026C449.413 369.193 433.513 392.874 413.362 413.068C393.21 433.267 369.572 449.227 342.448 460.95C315.324 472.673 286.341 478.535 255.5 478.535ZM255.5 443.319C307.933 443.319 352.344 425.026 388.734 388.44C425.124 351.855 443.319 307.541 443.319 255.5C443.319 203.067 425.124 158.656 388.734 122.266C352.344 85.8759 307.933 67.6809 255.5 67.6809C203.458 67.6809 159.145 85.8759 122.559 122.266C85.9737 158.656 67.6809 203.067 67.6809 255.5C67.6809 307.541 85.9737 351.855 122.559 388.44C159.145 425.026 203.458 443.319 255.5 443.319Z" fill="#1C1B1F"/>
</g>
</svg>
