<svg width="512" height="512" viewBox="0 0 512 512" fill="none" xmlns="http://www.w3.org/2000/svg">
<g clip-path="url(#clip0_823_3121)">
<rect width="512" height="512" fill="white"/>
<mask id="mask0_823_3121" style="mask-type:alpha" maskUnits="userSpaceOnUse" x="-9" y="-9" width="529" height="529">
<rect x="-9" y="-9" width="529" height="529" fill="#D9D9D9"/>
</mask>
<g mask="url(#mask0_823_3121)">
<path d="M247.785 122.699C245.581 120.495 244.479 117.924 244.479 114.985C244.479 112.046 245.581 109.474 247.785 107.27C249.989 105.066 252.56 103.964 255.499 103.964C258.438 103.964 261.01 105.066 263.214 107.27C265.418 109.474 266.52 112.046 266.52 114.985C266.52 117.924 265.418 120.495 263.214 122.699C261.01 124.903 258.438 126.006 255.499 126.006C252.56 126.006 249.989 124.903 247.785 122.699ZM291.868 122.699C289.664 120.495 288.562 117.924 288.562 114.985C288.562 112.046 289.664 109.474 291.868 107.27C294.072 105.066 296.644 103.964 299.583 103.964C302.522 103.964 305.093 105.066 307.297 107.27C309.501 109.474 310.604 112.046 310.604 114.985C310.604 117.924 309.501 120.495 307.297 122.699C305.093 124.903 302.522 126.006 299.583 126.006C296.644 126.006 294.072 124.903 291.868 122.699ZM203.701 122.699C201.497 120.495 200.395 117.924 200.395 114.985C200.395 112.046 201.497 109.474 203.701 107.27C205.906 105.066 208.477 103.964 211.416 103.964C214.355 103.964 216.926 105.066 219.131 107.27C221.335 109.474 222.437 112.046 222.437 114.985C222.437 117.924 221.335 120.495 219.131 122.699C216.926 124.903 214.355 126.006 211.416 126.006C208.477 126.006 205.906 124.903 203.701 122.699ZM357.993 144.741C355.789 142.537 354.687 139.965 354.687 137.026C354.687 134.087 355.789 131.516 357.993 129.312C360.197 127.108 362.769 126.006 365.708 126.006C368.647 126.006 371.218 127.108 373.422 129.312C375.626 131.516 376.729 134.087 376.729 137.026C376.729 139.965 375.626 142.537 373.422 144.741C371.218 146.945 368.647 148.047 365.708 148.047C362.769 148.047 360.197 146.945 357.993 144.741ZM181.66 144.741C179.456 142.537 178.354 139.965 178.354 137.026C178.354 134.087 179.456 131.516 181.66 129.312C183.864 127.108 186.435 126.006 189.374 126.006C192.313 126.006 194.885 127.108 197.089 129.312C199.293 131.516 200.395 134.087 200.395 137.026C200.395 139.965 199.293 142.537 197.089 144.741C194.885 146.945 192.313 148.047 189.374 148.047C186.435 148.047 183.864 146.945 181.66 144.741ZM137.576 144.741C135.372 142.537 134.27 139.965 134.27 137.026C134.27 134.087 135.372 131.516 137.576 129.312C139.781 127.108 142.352 126.006 145.291 126.006C148.23 126.006 150.801 127.108 153.006 129.312C155.21 131.516 156.312 134.087 156.312 137.026C156.312 139.965 155.21 142.537 153.006 144.741C150.801 146.945 148.23 148.047 145.291 148.047C142.352 148.047 139.781 146.945 137.576 144.741ZM225.743 144.741C223.539 142.537 222.437 139.965 222.437 137.026C222.437 134.087 223.539 131.516 225.743 129.312C227.947 127.108 230.519 126.006 233.458 126.006C236.397 126.006 238.968 127.108 241.172 129.312C243.376 131.516 244.479 134.087 244.479 137.026C244.479 139.965 243.376 142.537 241.172 144.741C238.968 146.945 236.397 148.047 233.458 148.047C230.519 148.047 227.947 146.945 225.743 144.741ZM269.826 144.741C267.622 142.537 266.52 139.965 266.52 137.026C266.52 134.087 267.622 131.516 269.826 129.312C272.031 127.108 274.602 126.006 277.541 126.006C280.48 126.006 283.051 127.108 285.256 129.312C287.46 131.516 288.562 134.087 288.562 137.026C288.562 139.965 287.46 142.537 285.256 144.741C283.051 146.945 280.48 148.047 277.541 148.047C274.602 148.047 272.031 146.945 269.826 144.741ZM313.91 144.741C311.706 142.537 310.604 139.965 310.604 137.026C310.604 134.087 311.706 131.516 313.91 129.312C316.114 127.108 318.685 126.006 321.624 126.006C324.563 126.006 327.135 127.108 329.339 129.312C331.543 131.516 332.645 134.087 332.645 137.026C332.645 139.965 331.543 142.537 329.339 144.741C327.135 146.945 324.563 148.047 321.624 148.047C318.685 148.047 316.114 146.945 313.91 144.741ZM247.785 166.783C245.581 164.578 244.479 162.007 244.479 159.068C244.479 156.129 245.581 153.558 247.785 151.353C249.989 149.149 252.56 148.047 255.499 148.047C258.438 148.047 261.01 149.149 263.214 151.353C265.418 153.558 266.52 156.129 266.52 159.068C266.52 162.007 265.418 164.578 263.214 166.783C261.01 168.987 258.438 170.089 255.499 170.089C252.56 170.089 249.989 168.987 247.785 166.783ZM291.868 166.783C289.664 164.578 288.562 162.007 288.562 159.068C288.562 156.129 289.664 153.558 291.868 151.353C294.072 149.149 296.644 148.047 299.583 148.047C302.522 148.047 305.093 149.149 307.297 151.353C309.501 153.558 310.604 156.129 310.604 159.068C310.604 162.007 309.501 164.578 307.297 166.783C305.093 168.987 302.522 170.089 299.583 170.089C296.644 170.089 294.072 168.987 291.868 166.783ZM335.951 166.783C333.747 164.578 332.645 162.007 332.645 159.068C332.645 156.129 333.747 153.558 335.951 151.353C338.156 149.149 340.727 148.047 343.666 148.047C346.605 148.047 349.176 149.149 351.381 151.353C353.585 153.558 354.687 156.129 354.687 159.068C354.687 162.007 353.585 164.578 351.381 166.783C349.176 168.987 346.605 170.089 343.666 170.089C340.727 170.089 338.156 168.987 335.951 166.783ZM203.701 166.783C201.497 164.578 200.395 162.007 200.395 159.068C200.395 156.129 201.497 153.558 203.701 151.353C205.906 149.149 208.477 148.047 211.416 148.047C214.355 148.047 216.926 149.149 219.131 151.353C221.335 153.558 222.437 156.129 222.437 159.068C222.437 162.007 221.335 164.578 219.131 166.783C216.926 168.987 214.355 170.089 211.416 170.089C208.477 170.089 205.906 168.987 203.701 166.783ZM159.618 166.783C157.414 164.578 156.312 162.007 156.312 159.068C156.312 156.129 157.414 153.558 159.618 151.353C161.822 149.149 164.394 148.047 167.333 148.047C170.272 148.047 172.843 149.149 175.047 151.353C177.251 153.558 178.354 156.129 178.354 159.068C178.354 162.007 177.251 164.578 175.047 166.783C172.843 168.987 170.272 170.089 167.333 170.089C164.394 170.089 161.822 168.987 159.618 166.783ZM181.66 188.824C179.456 186.62 178.354 184.049 178.354 181.11C178.354 178.171 179.456 175.599 181.66 173.395C183.864 171.191 186.435 170.089 189.374 170.089C192.313 170.089 194.885 171.191 197.089 173.395C199.293 175.599 200.395 178.171 200.395 181.11C200.395 184.049 199.293 186.62 197.089 188.824C194.885 191.028 192.313 192.131 189.374 192.131C186.435 192.131 183.864 191.028 181.66 188.824ZM137.576 188.824C135.372 186.62 134.27 184.049 134.27 181.11C134.27 178.171 135.372 175.599 137.576 173.395C139.781 171.191 142.352 170.089 145.291 170.089C148.23 170.089 150.801 171.191 153.006 173.395C155.21 175.599 156.312 178.171 156.312 181.11C156.312 184.049 155.21 186.62 153.006 188.824C150.801 191.028 148.23 192.131 145.291 192.131C142.352 192.131 139.781 191.028 137.576 188.824ZM225.743 188.824C223.539 186.62 222.437 184.049 222.437 181.11C222.437 178.171 223.539 175.599 225.743 173.395C227.947 171.191 230.519 170.089 233.458 170.089C236.397 170.089 238.968 171.191 241.172 173.395C243.376 175.599 244.479 178.171 244.479 181.11C244.479 184.049 243.376 186.62 241.172 188.824C238.968 191.028 236.397 192.131 233.458 192.131C230.519 192.131 227.947 191.028 225.743 188.824ZM269.826 188.824C267.622 186.62 266.52 184.049 266.52 181.11C266.52 178.171 267.622 175.599 269.826 173.395C272.031 171.191 274.602 170.089 277.541 170.089C280.48 170.089 283.051 171.191 285.256 173.395C287.46 175.599 288.562 178.171 288.562 181.11C288.562 184.049 287.46 186.62 285.256 188.824C283.051 191.028 280.48 192.131 277.541 192.131C274.602 192.131 272.031 191.028 269.826 188.824ZM313.91 188.824C311.706 186.62 310.604 184.049 310.604 181.11C310.604 178.171 311.706 175.599 313.91 173.395C316.114 171.191 318.685 170.089 321.624 170.089C324.563 170.089 327.135 171.191 329.339 173.395C331.543 175.599 332.645 178.171 332.645 181.11C332.645 184.049 331.543 186.62 329.339 188.824C327.135 191.028 324.563 192.131 321.624 192.131C318.685 192.131 316.114 191.028 313.91 188.824ZM357.993 188.824C355.789 186.62 354.687 184.049 354.687 181.11C354.687 178.171 355.789 175.599 357.993 173.395C360.197 171.191 362.769 170.089 365.708 170.089C368.647 170.089 371.218 171.191 373.422 173.395C375.626 175.599 376.729 178.171 376.729 181.11C376.729 184.049 375.626 186.62 373.422 188.824C371.218 191.028 368.647 192.131 365.708 192.131C362.769 192.131 360.197 191.028 357.993 188.824ZM93.4931 188.824C91.2889 186.62 90.1868 184.049 90.1868 181.11C90.1868 178.171 91.2889 175.599 93.4931 173.395C95.6973 171.191 98.2688 170.089 101.208 170.089C104.147 170.089 106.718 171.191 108.922 173.395C111.126 175.599 112.229 178.171 112.229 181.11C112.229 184.049 111.126 186.62 108.922 188.824C106.718 191.028 104.147 192.131 101.208 192.131C98.2688 192.131 95.6973 191.028 93.4931 188.824ZM115.535 166.783C113.331 164.578 112.229 162.007 112.229 159.068C112.229 156.129 113.331 153.558 115.535 151.353C117.739 149.149 120.31 148.047 123.249 148.047C126.188 148.047 128.76 149.149 130.964 151.353C133.168 153.558 134.27 156.129 134.27 159.068C134.27 162.007 133.168 164.578 130.964 166.783C128.76 168.987 126.188 170.089 123.249 170.089C120.31 170.089 117.739 168.987 115.535 166.783ZM159.618 122.699C157.414 120.495 156.312 117.924 156.312 114.985C156.312 112.046 157.414 109.474 159.618 107.27C161.822 105.066 164.394 103.964 167.333 103.964C170.272 103.964 172.843 105.066 175.047 107.27C177.251 109.474 178.354 112.046 178.354 114.985C178.354 117.924 177.251 120.495 175.047 122.699C172.843 124.903 170.272 126.006 167.333 126.006C164.394 126.006 161.822 124.903 159.618 122.699ZM181.66 100.658C179.456 98.4535 178.354 95.8819 178.354 92.943C178.354 90.0041 179.456 87.4326 181.66 85.2284C183.864 83.0243 186.435 81.9222 189.374 81.9222C192.313 81.9222 194.885 83.0243 197.089 85.2284C199.293 87.4326 200.395 90.0041 200.395 92.943C200.395 95.8819 199.293 98.4535 197.089 100.658C194.885 102.862 192.313 103.964 189.374 103.964C186.435 103.964 183.864 102.862 181.66 100.658ZM225.743 100.658C223.539 98.4535 222.437 95.8819 222.437 92.943C222.437 90.0041 223.539 87.4326 225.743 85.2284C227.947 83.0243 230.519 81.9222 233.458 81.9222C236.397 81.9222 238.968 83.0243 241.172 85.2284C243.376 87.4326 244.479 90.0041 244.479 92.943C244.479 95.8819 243.376 98.4535 241.172 100.658C238.968 102.862 236.397 103.964 233.458 103.964C230.519 103.964 227.947 102.862 225.743 100.658ZM269.826 100.658C267.622 98.4535 266.52 95.8819 266.52 92.943C266.52 90.0041 267.622 87.4326 269.826 85.2284C272.031 83.0243 274.602 81.9222 277.541 81.9222C280.48 81.9222 283.051 83.0243 285.256 85.2284C287.46 87.4326 288.562 90.0041 288.562 92.943C288.562 95.8819 287.46 98.4535 285.256 100.658C283.051 102.862 280.48 103.964 277.541 103.964C274.602 103.964 272.031 102.862 269.826 100.658ZM313.91 100.658C311.706 98.4535 310.604 95.8819 310.604 92.943C310.604 90.0041 311.706 87.4326 313.91 85.2284C316.114 83.0243 318.685 81.9222 321.624 81.9222C324.563 81.9222 327.135 83.0243 329.339 85.2284C331.543 87.4326 332.645 90.0041 332.645 92.943C332.645 95.8819 331.543 98.4535 329.339 100.658C327.135 102.862 324.563 103.964 321.624 103.964C318.685 103.964 316.114 102.862 313.91 100.658ZM335.951 122.699C333.747 120.495 332.645 117.924 332.645 114.985C332.645 112.046 333.747 109.474 335.951 107.27C338.156 105.066 340.727 103.964 343.666 103.964C346.605 103.964 349.176 105.066 351.381 107.27C353.585 109.474 354.687 112.046 354.687 114.985C354.687 117.924 353.585 120.495 351.381 122.699C349.176 124.903 346.605 126.006 343.666 126.006C340.727 126.006 338.156 124.903 335.951 122.699ZM380.035 166.783C377.831 164.578 376.729 162.007 376.729 159.068C376.729 156.129 377.831 153.558 380.035 151.353C382.239 149.149 384.81 148.047 387.749 148.047C390.688 148.047 393.26 149.149 395.464 151.353C397.668 153.558 398.77 156.129 398.77 159.068C398.77 162.007 397.668 164.578 395.464 166.783C393.26 168.987 390.688 170.089 387.749 170.089C384.81 170.089 382.239 168.987 380.035 166.783ZM402.076 188.824C399.872 186.62 398.77 184.049 398.77 181.11C398.77 178.171 399.872 175.599 402.076 173.395C404.281 171.191 406.852 170.089 409.791 170.089C412.73 170.089 415.301 171.191 417.506 173.395C419.71 175.599 420.812 178.171 420.812 181.11C420.812 184.049 419.71 186.62 417.506 188.824C415.301 191.028 412.73 192.131 409.791 192.131C406.852 192.131 404.281 191.028 402.076 188.824ZM169.812 297.104C164.486 291.777 161.822 285.257 161.822 277.542C161.822 269.827 164.486 263.307 169.812 257.98C175.139 252.653 181.66 249.99 189.374 249.99C197.089 249.99 203.61 252.653 208.936 257.98C214.263 263.307 216.926 269.827 216.926 277.542C216.926 285.257 214.263 291.777 208.936 297.104C203.61 302.431 197.089 305.094 189.374 305.094C181.66 305.094 175.139 302.431 169.812 297.104ZM302.062 297.104C296.736 291.777 294.072 285.257 294.072 277.542C294.072 269.827 296.736 263.307 302.062 257.98C307.389 252.653 313.91 249.99 321.624 249.99C329.339 249.99 335.86 252.653 341.186 257.98C346.513 263.307 349.176 269.827 349.176 277.542C349.176 285.257 346.513 291.777 341.186 297.104C335.86 302.431 329.339 305.094 321.624 305.094C313.91 305.094 307.389 302.431 302.062 297.104ZM255.499 464.896C226.79 464.896 199.706 459.404 174.248 448.42C148.794 437.436 126.565 422.442 107.561 403.438C88.5576 384.435 73.5638 362.206 62.5797 336.751C51.5956 311.293 46.1035 284.241 46.1035 255.594C46.1035 226.595 51.6066 199.358 62.6127 173.886C73.6189 148.409 88.6035 126.211 107.567 107.292C126.526 88.3731 148.752 73.4454 174.243 62.509C199.734 51.5727 226.797 46.1045 255.433 46.1045C284.414 46.1045 311.641 51.5727 337.114 62.509C362.591 73.4454 384.788 88.3731 403.708 107.292C422.627 126.211 437.554 148.404 448.491 173.869C459.427 199.334 464.895 226.545 464.895 255.5C464.895 284.151 459.427 311.229 448.491 336.735C437.554 362.241 422.627 384.473 403.708 403.433C384.788 422.396 362.596 437.381 337.131 448.387C311.665 459.393 284.455 464.896 255.499 464.896ZM255.499 431.834C304.726 431.834 346.421 414.66 380.586 380.311C414.75 345.963 431.833 304.359 431.833 255.5C431.833 206.274 414.75 164.578 380.586 130.414C346.421 96.2493 304.726 79.167 255.499 79.167C206.64 79.167 165.037 96.2493 130.688 130.414C96.3401 164.578 79.166 206.274 79.166 255.5C79.166 304.359 96.3401 345.963 130.688 380.311C165.037 414.66 206.64 431.834 255.499 431.834Z" fill="#1C1B1F"/>
</g>
</g>
<defs>
<clipPath id="clip0_823_3121">
<rect width="512" height="512" fill="white"/>
</clipPath>
</defs>
</svg>
